HIERARCHY
ROOT Hips
{
	OFFSET -0.001795 -0.223333 0.028219
	CHANNELS 6 Xposition Yposition Zposition Zrotation Yrotation Xrotation 
	JOINT LeftUpLeg
	{
		OFFSET 0.069520 -0.091406 -0.006815
		CHANNELS 3 Zrotation Yrotation Xrotation
		JOINT LeftLeg
		{
			OFFSET 0.034277 -0.375199 -0.004496
			CHANNELS 3 Zrotation Yrotation Xrotation
			JOINT LeftFoot
			{
				OFFSET -0.013596 -0.397961 -0.043693
				CHANNELS 3 Zrotation Yrotation Xrotation
				JOINT LeftToe
				{
					OFFSET 0.026358 -0.055791 0.119288
					CHANNELS 3 Zrotation Yrotation Xrotation
					End Site
					{
						OFFSET 0.000000 0.000000 0.000000
					}
				}
			}
		}
	}
	JOINT RightUpLeg
	{
		OFFSET -0.067670 -0.090522 -0.004320
		CHANNELS 3 Zrotation Yrotation Xrotation
		JOINT RightLeg
		{
			OFFSET -0.038290 -0.382569 -0.008850
			CHANNELS 3 Zrotation Yrotation Xrotation
			JOINT RightFoot
			{
				OFFSET 0.015774 -0.398415 -0.042312
				CHANNELS 3 Zrotation Yrotation Xrotation
				JOINT RightToe
				{
					OFFSET -0.025372 -0.048144 0.123348
					CHANNELS 3 Zrotation Yrotation Xrotation
					End Site
					{
						OFFSET 0.000000 0.000000 0.000000
					}
				}
			}
		}
	}
	JOINT Spine
	{
		OFFSET -0.002533 0.108963 -0.026696
		CHANNELS 3 Zrotation Yrotation Xrotation
		JOINT Spine1
		{
			OFFSET 0.005487 0.135180 0.001092
			CHANNELS 3 Zrotation Yrotation Xrotation
			JOINT Spine2
			{
				OFFSET 0.001457 0.052922 0.025425
				CHANNELS 3 Zrotation Yrotation Xrotation
				JOINT Neck
				{
					OFFSET -0.002778 0.213870 -0.042857
					CHANNELS 3 Zrotation Yrotation Xrotation
					JOINT Head
					{
						OFFSET 0.005152 0.064970 0.051349
						CHANNELS 3 Zrotation Yrotation Xrotation
						End Site
						{
							OFFSET 0.000000 0.000000 0.000000
						}
					}
				}
				JOINT LeftShoulder
				{
					OFFSET 0.078845 0.121749 -0.034090
					CHANNELS 3 Zrotation Yrotation Xrotation
					JOINT LeftArm
					{
						OFFSET 0.090977 0.030469 -0.008868
						CHANNELS 3 Zrotation Yrotation Xrotation
						JOINT LeftForeArm
						{
							OFFSET 0.259612 -0.012772 -0.027456
							CHANNELS 3 Zrotation Yrotation Xrotation
							JOINT LeftHand
							{
								OFFSET 0.249234 0.008986 -0.001171
								CHANNELS 3 Zrotation Yrotation Xrotation
								End Site
								{
									OFFSET 0.000000 0.000000 0.000000
								}
							}
						}
					}
				}
				JOINT RightShoulder
				{
					OFFSET -0.081759 0.118833 -0.038615
					CHANNELS 3 Zrotation Yrotation Xrotation
					JOINT RightArm
					{
						OFFSET -0.096012 0.032551 -0.009143
						CHANNELS 3 Zrotation Yrotation Xrotation
						JOINT RightForeArm
						{
							OFFSET -0.253742 -0.013329 -0.021401
							CHANNELS 3 Zrotation Yrotation Xrotation
							JOINT RightHand
							{
								OFFSET -0.255298 0.007772 -0.005559
								CHANNELS 3 Zrotation Yrotation Xrotation
								End Site
								{
									OFFSET 0.000000 0.000000 0.000000
								}
							}
						}
					}
				}
			}
		}
	}
}
MOTION
Frames: 15
Frame Time: 0.050000
0.000000 0.960803 0.000000 -1.153764 2.956594 2.942290 6.533546 -0.318038 -4.523291 -4.353887 0.434747 -1.790690 6.098744 15.154700 16.002332 0.000000 0.000000 0.000000 -1.404398 0.430863 -4.471106 3.127370 -0.350170 0.022872 -7.401353 -18.438801 10.464797 0.000000 0.000000 0.000000 5.259803 -0.128328 0.338441 -4.195930 1.708339 -21.229508 -0.653797 4.471797 27.124682 7.180357 -1.675624 -24.921156 0.000000 0.000000 0.000000 -6.934071 -17.305204 6.069051 -34.403393 -22.996563 0.350760 16.694829 -39.766498 -4.891659 0.000000 0.000000 0.000000 28.927462 -3.102873 -1.225007 66.156549 10.743647 -3.339858 -19.250317 33.950682 -2.198664 0.000000 0.000000 0.000000 
0.000580 0.959569 0.001414 -1.444447 3.769387 4.137401 6.945263 -0.396905 -6.173079 -4.424415 0.433525 -1.206299 6.089412 15.063049 14.724092 0.000000 0.000000 0.000000 -1.399494 0.507038 -5.307197 3.819571 -0.432054 0.554406 -8.390673 -20.271083 9.877344 0.000000 0.000000 0.000000 5.896975 -0.077996 -0.675920 -4.309756 1.731905 -21.780183 -0.660627 3.545410 27.321828 6.442859 -1.230295 -25.638346 0.000000 0.000000 0.000000 -8.711923 -15.414544 5.434340 -34.719373 -20.214115 -0.354271 11.734740 -40.998982 -3.137586 0.000000 0.000000 0.000000 27.956463 -4.016914 -2.067849 69.262547 9.010790 -4.107208 -18.967194 35.215162 -2.242729 0.000000 0.000000 0.000000 
0.001477 0.959202 0.003551 -1.369052 3.778619 4.736845 7.322917 -0.407675 -6.467232 -4.770491 0.463624 -1.084669 5.674262 14.628109 15.939536 0.000000 0.000000 0.000000 -1.528167 0.524097 -5.516958 3.144352 -0.357736 -0.159744 -8.846057 -21.006518 11.847103 0.000000 0.000000 0.000000 6.470062 -0.081056 -0.897108 -4.347232 1.727950 -22.205885 -1.403327 4.595085 27.378375 8.005244 -2.002721 -25.472641 0.000000 0.000000 0.000000 -8.630295 -15.310847 5.238574 -37.166726 -16.203580 -1.361825 6.005459 -44.271852 -1.222010 0.000000 0.000000 0.000000 29.579013 -4.215432 -1.858313 67.185226 7.562298 -5.150543 -17.580612 34.557966 -1.765714 0.000000 0.000000 0.000000 
0.002495 0.960218 0.006314 -1.473240 3.479469 5.204000 7.589858 -0.424607 -7.231553 -5.448735 0.532885 -0.611548 6.036011 15.135878 16.132295 0.000000 0.000000 0.000000 -1.489560 0.556967 -5.863756 3.035457 -0.341668 -0.072110 -8.614442 -20.592786 12.200113 0.000000 0.000000 0.000000 6.366272 -0.056813 -1.215597 -4.621534 1.788586 -22.175182 -0.757773 4.590248 27.056025 6.876540 -1.493034 -24.447440 0.000000 0.000000 0.000000 -9.681612 -13.755068 4.608905 -38.726399 -11.056248 -2.810983 -2.599078 -48.885096 2.524230 0.000000 0.000000 0.000000 30.214904 -4.435071 -2.161546 67.521544 5.310173 -6.412837 -16.474206 35.553557 -1.585251 0.000000 0.000000 0.000000 
0.003762 0.960371 0.009857 -1.333109 3.095756 5.381297 7.395653 -0.425978 -7.216715 -5.445112 0.540097 -0.416752 5.795941 14.687210 15.618667 0.000000 0.000000 0.000000 -1.569610 0.575185 -6.085165 2.423066 -0.268828 0.015815 -8.201450 -19.888986 11.837707 0.000000 0.000000 0.000000 6.087024 -0.024146 -1.539619 -4.278154 1.705183 -21.710709 -0.905295 5.206825 27.032948 7.682470 -2.002620 -23.867914 0.000000 0.000000 0.000000 -10.529541 -12.151873 3.843649 -40.951737 -4.886458 -4.827816 -13.150484 -54.080647 8.150523 0.000000 0.000000 0.000000 31.078597 -5.001514 -2.454837 66.048784 4.330665 -7.010180 -13.034223 34.923331 -0.649191 0.000000 0.000000 0.000000 
0.004986 0.960831 0.013935 -1.318952 2.702596 5.453453 7.339037 -0.417932 -7.085075 -5.478066 0.546423 -0.585772 5.928309 14.877943 15.962957 0.000000 0.000000 0.000000 -1.838640 0.559187 -5.951519 2.385733 -0.260599 0.119406 -7.319794 -18.314480 11.216251 0.000000 0.000000 0.000000 6.225938 -0.011953 -1.690658 -4.456073 1.746325 -21.554392 -0.692292 5.464337 26.884340 7.354172 -1.780473 -23.955054 0.000000 0.000000 0.000000 -10.924906 -9.969063 2.862052 -43.730615 1.178872 -7.186816 -27.504584 -56.491860 16.497133 0.000000 0.000000 0.000000 30.705186 -5.384163 -2.755174 65.658332 2.979421 -7.678311 -9.965240 34.606815 0.112332 0.000000 0.000000 0.000000 
0.006189 0.960444 0.018236 -1.371124 2.545875 5.496655 7.267416 -0.413787 -6.937699 -5.401187 0.544465 -0.323628 6.097846 15.053294 15.543570 0.000000 0.000000 0.000000 -1.788143 0.551788 -5.838942 2.204774 -0.233780 0.421972 -6.930492 -17.589113 10.444305 0.000000 0.000000 0.000000 6.136033 0.010472 -1.923495 -4.566923 1.774749 -21.407904 -0.525087 6.045896 26.961814 7.692390 -1.991364 -23.451160 0.000000 0.000000 0.000000 -11.814235 -8.144293 1.909697 -45.581529 6.063585 -9.235493 -38.422763 -56.273714 22.567348 0.000000 0.000000 0.000000 30.707474 -5.702012 -2.812011 65.162334 1.946888 -8.240366 -7.080804 34.281592 0.888417 0.000000 0.000000 0.000000 
0.007389 0.960253 0.022454 -1.450062 2.535666 5.400043 7.219287 -0.403960 -6.622407 -5.283412 0.535946 -0.084406 5.801196 14.564629 15.087295 0.000000 0.000000 0.000000 -1.818968 0.509284 -5.336842 2.305224 -0.241151 0.652581 -6.860182 -17.446437 10.042022 0.000000 0.000000 0.000000 6.207193 0.018955 -2.001055 -4.535954 1.767631 -21.384428 -0.682035 6.616364 26.818646 8.250222 -2.187266 -23.777484 0.000000 0.000000 0.000000 -12.297375 -6.967835 1.222146 -48.123002 9.927987 -11.264417 -42.970551 -54.472146 24.258012 0.000000 0.000000 0.000000 30.483930 -6.180091 -2.948923 64.633251 1.358529 -8.501207 -4.936066 33.659903 1.440486 0.000000 0.000000 0.000000 
0.008629 0.960431 0.026124 -1.475958 2.659801 5.507593 7.106829 -0.409815 -6.597714 -5.305120 0.539319 0.185806 5.832633 14.541879 14.464223 0.000000 0.000000 0.000000 -1.869333 0.508198 -5.331308 2.258442 -0.229461 1.031702 -6.729524 -17.181613 9.801764 0.000000 0.000000 0.000000 5.927132 0.064785 -2.499155 -4.485629 1.761308 -21.162154 -0.688401 6.917161 26.906706 8.389448 -2.214373 -23.771758 0.000000 0.000000 0.000000 -13.192234 -5.926706 0.569210 -50.040079 12.189935 -12.667162 -41.521281 -51.930900 22.201407 0.000000 0.000000 0.000000 30.084753 -5.858575 -2.553069 64.224525 0.884297 -8.730715 -3.699394 33.225951 1.734245 0.000000 0.000000 0.000000 
0.009755 0.960725 0.028935 -1.463464 2.964522 5.332025 6.790936 -0.408790 -6.269480 -4.926901 0.497681 0.269924 5.329623 13.750382 13.929494 0.000000 0.000000 0.000000 -1.961101 0.462423 -4.812512 2.249560 -0.227948 1.167213 -6.977063 -17.628706 9.520462 0.000000 0.000000 0.000000 5.863831 0.083623 -2.680850 -4.643513 1.820221 -20.768456 -0.918209 7.176129 26.704731 8.608723 -2.213562 -24.104354 0.000000 0.000000 0.000000 -13.492196 -5.875174 0.405574 -51.995417 13.213517 -13.649461 -39.436221 -49.749362 20.061495 0.000000 0.000000 0.000000 29.659627 -5.779917 -2.310571 64.133596 0.743472 -8.765437 -3.070923 32.707585 1.865997 0.000000 0.000000 0.000000 
0.010746 0.960632 0.030902 -1.489367 3.392789 5.378881 6.807538 -0.414098 -6.220966 -5.084447 0.508240 0.288721 5.258599 13.595910 13.357900 0.000000 0.000000 0.000000 -2.107145 0.457563 -4.790158 2.470464 -0.252556 1.500641 -7.419067 -18.454181 9.498616 0.000000 0.000000 0.000000 5.896026 0.102243 -2.923118 -4.810900 1.873966 -20.688525 -1.148397 7.352228 26.684374 8.680415 -2.119995 -24.480616 0.000000 0.000000 0.000000 -14.067951 -6.201112 0.387115 -53.033126 12.820366 -13.769623 -35.645037 -47.178323 17.070644 0.000000 0.000000 0.000000 29.013789 -5.417348 -1.858985 63.887475 0.851556 -8.671341 -2.683315 32.385789 1.948979 0.000000 0.000000 0.000000 
0.011521 0.960789 0.032280 -1.507186 3.495590 5.264857 6.733040 -0.405071 -5.918413 -4.956150 0.493675 0.230073 5.080367 13.321269 13.271113 0.000000 0.000000 0.000000 -2.250825 0.444544 -4.664331 2.594790 -0.265768 1.738324 -7.599068 -18.792822 9.558687 0.000000 0.000000 0.000000 6.056259 0.100131 -2.885798 -5.162093 1.975061 -20.473747 -1.255683 7.785069 26.442715 8.416910 -1.767895 -25.105915 0.000000 0.000000 0.000000 -14.261641 -6.576781 0.422897 -53.654371 12.492467 -13.779547 -32.986258 -45.660788 15.190091 0.000000 0.000000 0.000000 28.752944 -5.418950 -1.676593 63.335860 1.366725 -8.347304 -2.279009 31.916315 2.022712 0.000000 0.000000 0.000000 
0.012183 0.960785 0.033384 -1.460202 3.639413 5.245590 6.679898 -0.402475 -5.759810 -5.048466 0.499417 0.055402 4.751852 12.787390 12.993906 0.000000 0.000000 0.000000 -2.307102 0.435293 -4.564823 2.605052 -0.266586 1.853664 -7.731769 -19.030462 10.008585 0.000000 0.000000 0.000000 5.918017 0.105684 -2.946687 -5.274811 2.010588 -20.383599 -1.582851 7.796357 26.177154 8.442224 -1.718422 -25.348087 0.000000 0.000000 0.000000 -14.666143 -6.621646 0.352173 -53.954589 12.072085 -13.629946 -30.510475 -44.863553 13.806709 0.000000 0.000000 0.000000 28.416173 -5.190762 -1.473109 62.886831 1.782982 -8.067902 -1.582737 31.931053 2.191396 0.000000 0.000000 0.000000 
0.012664 0.960947 0.034338 -1.445973 3.622343 4.977798 6.608896 -0.385802 -5.367650 -4.960910 0.491109 0.020628 4.343960 12.068951 12.511514 0.000000 0.000000 0.000000 -2.238433 0.405855 -4.201564 2.533835 -0.256983 1.889717 -7.743064 -19.053266 10.029377 0.000000 0.000000 0.000000 5.916121 0.101507 -2.841379 -5.660646 2.117871 -20.295225 -1.633783 7.972436 26.097865 8.268245 -1.551544 -25.577326 0.000000 0.000000 0.000000 -15.556913 -7.058830 0.402199 -53.138957 11.605683 -13.113073 -29.121648 -45.057206 13.235001 0.000000 0.000000 0.000000 28.590653 -5.145258 -1.386102 61.902103 2.269509 -7.797194 -0.653167 31.481151 2.367101 0.000000 0.000000 0.000000 
0.013008 0.960776 0.034855 -1.450652 4.079795 4.823936 6.670322 -0.383234 -5.189224 -4.993858 0.488085 -0.085504 4.007489 11.591030 12.503152 0.000000 0.000000 0.000000 -2.364544 0.381198 -3.936636 2.757957 -0.291150 1.778074 -7.851795 -19.227382 10.162245 0.000000 0.000000 0.000000 5.836002 0.097826 -2.786447 -5.762032 2.156496 -20.190138 -1.861870 7.871972 25.991712 8.316983 -1.493200 -25.912305 0.000000 0.000000 0.000000 -15.723197 -7.270404 0.427089 -52.385002 10.691558 -12.468080 -28.952297 -46.413515 13.529873 0.000000 0.000000 0.000000 28.434351 -5.050504 -1.239522 61.502004 3.048073 -7.381076 -0.953302 31.006332 2.246776 0.000000 0.000000 0.000000 
